<svg width="175" height="38" viewBox="0 0 175 38" fill="none" xmlns="http://www.w3.org/2000/svg">
<path d="M4.58984 28.4879L11.779 9.51209H15.4731L22.6623 28.4879H18.6841L17.0359 23.6799H9.98884L8.34072 28.4879H4.58984ZM10.9834 20.7212H16.013L13.5124 13.3528L10.9834 20.7212Z" fill="#19458C"/>
<path d="M33.5531 29C32.1702 29 30.882 28.744 29.6885 28.2319C28.495 27.7008 27.4437 26.9801 26.5344 26.0697C25.644 25.1404 24.9431 24.0782 24.4316 22.8834C23.9391 21.6695 23.6928 20.3703 23.6928 18.9858C23.6928 17.6012 23.9391 16.3115 24.4316 15.1166C24.9431 13.9028 25.644 12.8407 26.5344 11.9303C27.4437 11.0009 28.495 10.2802 29.6885 9.76814C30.882 9.25605 32.1702 9 33.5531 9C34.936 9 36.2241 9.25605 37.4176 9.76814C38.6111 10.2802 39.653 11.0009 40.5433 11.9303C41.4526 12.8407 42.1536 13.9028 42.6461 15.1166C43.1576 16.3115 43.4133 17.6012 43.4133 18.9858C43.4133 20.3703 43.1576 21.6695 42.6461 22.8834C42.1536 24.0782 41.4526 25.1404 40.5433 26.0697C39.653 26.9801 38.6111 27.7008 37.4176 28.2319C36.2241 28.744 34.936 29 33.5531 29ZM33.5531 25.6145C34.8033 25.6145 35.8831 25.3016 36.7924 24.6757C37.7018 24.0498 38.4027 23.2342 38.8952 22.229C39.4067 21.2048 39.6624 20.0953 39.6624 18.9004C39.6624 17.6866 39.4162 16.5771 38.9236 15.5718C38.4311 14.5666 37.7207 13.7606 36.7924 13.1536C35.8831 12.5467 34.8033 12.2432 33.5531 12.2432C32.3028 12.2432 31.2135 12.5467 30.2852 13.1536C29.3759 13.7606 28.675 14.5666 28.1825 15.5718C27.6899 16.5771 27.4437 17.6866 27.4437 18.9004C27.4437 20.0953 27.6899 21.2048 28.1825 22.229C28.675 23.2342 29.3759 24.0498 30.2852 24.6757C31.2135 25.3016 32.3028 25.6145 33.5531 25.6145Z" fill="#19458C"/>
<path d="M51.9349 28.4879V9.51209H68.274V28.4879H64.6936V12.6984H55.5153V28.4879H51.9349Z" fill="#19458C"/>
<path d="M72.3188 28.4879V9.51209H75.8992V17.1366H85.3048V9.51209H88.8852V28.4879H85.3048V20.3229H75.8992V28.4879H72.3188Z" fill="#19458C"/>
<path d="M109.207 9.51209V28.4879H105.712V14.5477L96.4482 28.4879H92.9247V9.51209H96.4198V23.2817L105.598 9.51209H109.207Z" fill="#19458C"/>
<path d="M129.535 9.51209V28.4879H126.04V14.5477L116.777 28.4879H113.253V9.51209H116.748V23.2817L125.926 9.51209H129.535Z" fill="#19458C"/>
<path d="M149.864 9.51209V28.4879H146.369V14.5477L137.105 28.4879H133.581V9.51209H137.077V23.2817L146.255 9.51209H149.864Z" fill="#19458C"/>
<path d="M168.089 22.8549L170.59 25.0171C170.211 25.5861 169.643 26.174 168.885 26.7809C168.127 27.3879 167.227 27.9 166.185 28.3172C165.143 28.7345 164.016 28.9431 162.804 28.9431C160.928 28.9431 159.261 28.5164 157.803 27.6629C156.363 26.8094 155.226 25.643 154.393 24.1636C153.578 22.6652 153.171 20.9772 153.171 19.0996C153.171 17.715 153.408 16.4158 153.881 15.202C154.355 13.9881 155.018 12.926 155.87 12.0156C156.742 11.0863 157.774 10.3656 158.968 9.85349C160.161 9.32243 161.478 9.0569 162.918 9.0569C164.793 9.0569 166.346 9.42674 167.578 10.1664C168.828 10.9061 169.832 11.807 170.59 12.8691L168.061 15.1166C167.455 14.2442 166.744 13.5424 165.93 13.0114C165.134 12.4803 164.13 12.2148 162.918 12.2148C161.686 12.2148 160.616 12.5277 159.707 13.1536C158.816 13.7795 158.125 14.614 157.632 15.6572C157.159 16.6814 156.922 17.8004 156.922 19.0142C156.922 20.2281 157.159 21.3281 157.632 22.3144C158.125 23.3006 158.807 24.0877 159.678 24.6757C160.55 25.2636 161.573 25.5576 162.747 25.5576C163.846 25.5576 164.727 25.3964 165.39 25.074C166.072 24.7515 166.612 24.3817 167.009 23.9644C167.426 23.5282 167.786 23.1584 168.089 22.8549Z" fill="#19458C"/>
</svg>
