<svg width="183" height="26" viewBox="0 0 183 26" fill="none" xmlns="http://www.w3.org/2000/svg">
<path d="M18.6464 17.0739L23.0215 21.9521C22.0145 23.0592 20.6777 24.0106 19.011 24.8064C17.379 25.6021 15.4345 26 13.1775 26C10.5732 26 8.28149 25.4464 6.30227 24.3393C4.32304 23.1976 2.77786 21.658 1.66672 19.7206C0.555572 17.7485 -1.54985e-07 15.4997 -1.29731e-07 12.9741C-1.05514e-07 10.5522 0.572933 8.37259 1.7188 6.43513C2.86467 4.46307 4.42721 2.90619 6.40644 1.76447C8.38566 0.588157 10.6427 1.06419e-07 13.1775 1.31765e-07C15.3998 1.53986e-07 17.3269 0.363274 18.9589 1.08982C20.6256 1.81637 21.9972 2.7851 23.0736 3.99601L18.5422 8.87425C17.9866 8.2515 17.3095 7.69794 16.5109 7.21357C15.7123 6.72921 14.6532 6.48703 13.3337 6.48703C12.1531 6.48703 11.1288 6.7984 10.2607 7.42116C9.39264 8.00931 8.71553 8.80506 8.22941 9.80838C7.77801 10.7771 7.5523 11.8323 7.5523 12.9741C7.5523 14.0466 7.77801 15.0845 8.22941 16.0878C8.71553 17.0566 9.39264 17.8696 10.2607 18.5269C11.1288 19.1497 12.1531 19.4611 13.3337 19.4611C14.6185 19.4611 15.6949 19.2016 16.563 18.6826C17.4311 18.1637 18.1255 17.6274 18.6464 17.0739Z" fill="#161616"/>
<path d="M24.6182 12.9741C24.6182 10.5868 25.1738 8.40718 26.2849 6.43513C27.3961 4.46307 28.9239 2.90619 30.8684 1.76447C32.8476 0.588157 35.1394 3.51367e-07 37.7436 3.77408e-07C40.3479 4.03448e-07 42.6222 0.588157 44.5667 1.76447C46.546 2.90619 48.0738 4.46307 49.1502 6.43513C50.2613 8.40718 50.8169 10.5868 50.8169 12.9741C50.8169 15.3613 50.2613 17.5409 49.1502 19.513C48.0738 21.485 46.546 23.0592 44.5667 24.2355C42.6222 25.4118 40.3479 26 37.7436 26C35.1394 26 32.8476 25.4118 30.8684 24.2355C28.9239 23.0592 27.3961 21.485 26.2849 19.513C25.1738 17.5409 24.6182 15.3613 24.6182 12.9741ZM37.7436 19.513C39.0284 19.513 40.0874 19.2016 40.9208 18.5788C41.7889 17.9561 42.4486 17.143 42.9 16.1397C43.3514 15.1364 43.5771 14.0812 43.5771 12.9741C43.5771 11.8669 43.3514 10.829 42.9 9.86028C42.4486 8.85695 41.7889 8.04391 40.9208 7.42116C40.0874 6.7984 39.0284 6.48703 37.7436 6.48703C36.4936 6.48703 35.4172 6.7984 34.5144 7.42116C33.6463 8.04391 32.9865 8.85695 32.5351 9.86028C32.0837 10.829 31.858 11.8669 31.858 12.9741C31.858 14.0812 32.0837 15.1364 32.5351 16.1397C32.9865 17.143 33.6463 17.9561 34.5144 18.5788C35.4172 19.2016 36.4936 19.513 37.7436 19.513Z" fill="#161616"/>
<path d="M55.1599 15.9321L55.1599 0.83034L62.6601 0.83034L62.6601 14.8423C62.6601 16.2262 62.99 17.316 63.6497 18.1118C64.3442 18.9075 65.3512 19.3054 66.6707 19.3054C68.1985 19.3054 69.3791 18.7691 70.2124 17.6966C71.0458 16.5895 71.4625 15.344 71.4625 13.9601L71.4625 0.83034L78.9106 0.83034L78.9106 25.1697L71.7229 25.1697L71.5145 22.5748C70.7159 23.509 69.6569 24.2874 68.3374 24.9102C67.0526 25.4983 65.6984 25.7924 64.2747 25.7924C61.4969 25.7924 59.2746 24.9621 57.6079 23.3014C55.9759 21.6407 55.1599 19.1843 55.1599 15.9321Z" fill="#161616"/>
<path d="M84.4601 25.1697L84.4601 0.83034L91.6478 0.83034L91.9082 3.89222C92.5332 3.06188 93.3839 2.26613 94.4604 1.50499C95.5715 0.743846 96.9952 0.363274 98.7313 0.363274C99.3911 0.363274 99.9466 0.397872 100.398 0.467067C100.884 0.536261 101.353 0.657352 101.804 0.83034L100.606 7.42116C99.8425 7.17898 98.9397 7.05789 97.898 7.05789C96.1271 7.05789 94.6861 7.59415 93.5749 8.66667C92.4985 9.70459 91.9603 11.1923 91.9603 13.1297L91.9603 25.1697L84.4601 25.1697Z" fill="#161616"/>
<path d="M102.947 22.4192L106.645 17.6447C107.443 18.3713 108.485 18.9767 109.77 19.4611C111.089 19.9454 112.357 20.1876 113.572 20.1876C114.683 20.1876 115.603 20.0492 116.332 19.7725C117.062 19.4611 117.426 18.9248 117.426 18.1637C117.426 17.7139 117.27 17.3506 116.957 17.0739C116.68 16.7625 116.124 16.4511 115.291 16.1397C114.492 15.8283 113.311 15.4651 111.749 15.0499C110.499 14.7039 109.284 14.2369 108.103 13.6487C106.957 13.0605 106.002 12.2821 105.238 11.3134C104.509 10.31 104.144 9.06454 104.144 7.57685C104.144 6.05456 104.596 4.73985 105.499 3.63274C106.402 2.49102 107.634 1.60878 109.197 0.986029C110.759 0.328677 112.513 1.12504e-06 114.457 1.14449e-06C116.541 1.16532e-06 118.364 0.242183 119.926 0.726548C121.523 1.17631 122.964 1.85097 124.249 2.7505L121.072 7.68064C120.308 7.16168 119.405 6.69461 118.364 6.27944C117.322 5.86427 116.159 5.65669 114.874 5.65669C113.728 5.65669 112.895 5.82967 112.374 6.17565C111.853 6.48703 111.593 6.91949 111.593 7.47305C111.593 8.2688 112.131 8.85695 113.207 9.23753C114.318 9.6181 115.777 10.0506 117.582 10.5349C120.048 11.1923 121.853 12.1437 122.999 13.3892C124.145 14.6001 124.718 16.2089 124.718 18.2156C124.718 19.98 124.197 21.4504 123.155 22.6267C122.114 23.7685 120.76 24.6161 119.093 25.1697C117.461 25.7232 115.725 26 113.884 26C111.697 26 109.631 25.7059 107.686 25.1178C105.742 24.495 104.162 23.5955 102.947 22.4192Z" fill="#161616"/>
<path d="M158.875 25.1697L158.875 0.830341L166.063 0.830341L166.272 3.47705C167.07 2.50832 168.129 1.72988 169.449 1.14172C170.768 0.553561 172.122 0.259482 173.511 0.259483C176.289 0.259483 178.511 1.08982 180.178 2.7505C181.845 4.41118 182.678 6.8676 182.678 10.1198L182.678 25.1697L175.178 25.1697L175.178 11.1577C175.178 9.80838 174.831 8.73586 174.136 7.94012C173.477 7.14438 172.539 6.74651 171.324 6.74651C169.692 6.74651 168.442 7.28277 167.574 8.35529C166.74 9.42781 166.324 10.6733 166.324 12.0918L166.324 25.1697L158.875 25.1697Z" fill="#161616"/>
<path d="M138.799 18.9862C138.045 19.4358 137.086 18.8941 137.086 18.0179L137.086 7.87423C137.086 6.99783 138.045 6.4561 138.8 6.90623L147.308 11.9806C148.042 12.4187 148.042 13.4792 147.307 13.9169L138.799 18.9862ZM141.425 0.282227C134.015 0.282227 128.262 4.62168 128.262 12.9993C128.262 21.3268 134.015 25.6662 141.425 25.6662C148.835 25.6662 154.588 21.377 154.588 12.9993C154.588 4.62168 148.835 0.282227 141.425 0.282227Z" fill="#05C86A"/>
<path d="M138.799 18.9862C138.045 19.4358 137.086 18.8941 137.086 18.0179L137.086 7.87423C137.086 6.99783 138.045 6.4561 138.8 6.90623L147.308 11.9806C148.042 12.4187 148.042 13.4792 147.307 13.9169L138.799 18.9862ZM141.425 0.282227C134.015 0.282227 128.262 4.62168 128.262 12.9993C128.262 21.3268 134.015 25.6662 141.425 25.6662C148.835 25.6662 154.588 21.377 154.588 12.9993C154.588 4.62168 148.835 0.282227 141.425 0.282227Z" fill="url(#paint0_linear)" fill-opacity="0.35"/>
<defs>
<linearGradient id="paint0_linear" x1="125.674" y1="-19.549" x2="160.493" y2="-18.3753" gradientUnits="userSpaceOnUse">
<stop stop-color="#7B98FF"/>
<stop offset="1" stop-color="#D6FFD2" stop-opacity="0"/>
</linearGradient>
</defs>
</svg>
