<svg width="219" height="32" viewBox="0 0 219 32" fill="none" xmlns="http://www.w3.org/2000/svg">
<path fill-rule="evenodd" clip-rule="evenodd" d="M40.3701 26.1586V8.72994H35.5945V4.98395H49.47V8.72994H44.694V26.1586H40.3701ZM47.3716 18.4758C47.3716 14.0315 50.018 10.4438 54.3418 10.4438C58.6334 10.4438 61.0535 13.8727 61.0535 18.6346V19.7143H51.2764C51.4378 21.8091 52.6962 23.4599 55.0517 23.4599C56.1488 23.4599 57.5685 22.9206 58.4398 21.9679L60.2145 24.2535C58.827 25.746 56.7296 26.5396 54.6322 26.5396C50.2439 26.5396 47.3716 23.3016 47.3716 18.4758ZM70.2814 26.1586L67.5067 21.0471L64.6993 26.1586H60.5046L65.0543 18.3488L60.7304 10.8251H64.9575L67.5067 15.6508L70.0238 10.8251H74.2507L69.9264 18.3488L74.5084 26.1586H70.2814ZM75.5087 26.1586V10.8251H79.3806V16.5397H84.2527V10.8251H88.1571V26.1586H84.2527V19.873H79.3806V26.1586H75.5087ZM89.6416 18.4761C89.6416 14.1904 92.0939 10.4441 96.676 10.4441C101.323 10.4441 103.743 14.1904 103.743 18.4761C103.743 22.7934 101.323 26.5394 96.676 26.5394C92.0939 26.5394 89.6416 22.7934 89.6416 18.4761ZM116.972 26.1586V8.72994H109.841V26.1586H105.517V4.98395H121.328V26.1586H116.972ZM127.201 24.222V32H123.328V10.8254H127.201V12.7619C128.168 11.2377 129.621 10.4441 131.137 10.4441C134.654 10.4441 136.913 13.4599 136.913 18.4761C136.913 23.4601 134.654 26.5394 131.137 26.5394C129.653 26.5394 128.168 25.8092 127.201 24.222ZM138.139 18.4761C138.139 14.1904 140.591 10.4441 145.173 10.4441C149.819 10.4441 152.24 14.1904 152.24 18.4761C152.24 22.7934 149.819 26.5394 145.173 26.5394C140.591 26.5394 138.139 22.7934 138.139 18.4761ZM163.533 14.1587H157.338V26.1585H153.466V10.8255H163.533V14.1587ZM168.695 24.222V32H164.823V10.8254H168.695V12.7619C169.664 11.2377 171.116 10.4441 172.633 10.4441C176.15 10.4441 178.409 13.4599 178.409 18.4761C178.409 23.4601 176.15 26.5394 172.633 26.5394C171.148 26.5394 169.664 25.8092 168.695 24.222ZM179.441 18.4758C179.441 14.0315 182.086 10.4438 186.41 10.4438C190.702 10.4438 193.122 13.8727 193.122 18.6346V19.7143H183.345C183.506 21.8091 184.765 23.4599 187.12 23.4599C188.217 23.4599 189.637 22.9206 190.509 21.9679L192.283 24.2535C190.895 25.746 188.798 26.5396 186.701 26.5396C182.312 26.5396 179.441 23.3016 179.441 18.4758ZM194.09 18.4761C194.09 13.8091 196.929 10.4441 201.221 10.4441C203.674 10.4441 205.287 11.4282 206.19 12.5079L204.254 15.1427C203.544 14.2853 202.705 13.8091 201.641 13.8091C199.414 13.8091 198.091 15.8094 198.091 18.4761C198.091 21.1427 199.414 23.1747 201.641 23.1747C202.705 23.1747 203.544 22.6982 204.254 21.8407L206.19 24.4759C205.287 25.5557 203.674 26.5394 201.221 26.5394C196.929 26.5394 194.09 23.1747 194.09 18.4761ZM206.222 18.4761C206.222 13.8091 209.062 10.4441 213.354 10.4441C215.806 10.4441 217.42 11.4282 218.323 12.5079L216.386 15.1427C215.677 14.2853 214.838 13.8091 213.773 13.8091C211.547 13.8091 210.224 15.8094 210.224 18.4761C210.224 21.1427 211.547 23.1747 213.773 23.1747C214.838 23.1747 215.677 22.6982 216.386 21.8407L218.323 24.4759C217.42 25.5557 215.806 26.5394 213.354 26.5394C209.062 26.5394 206.222 23.1747 206.222 18.4761ZM14.3791 9.1183C14.7183 9.72664 14.7123 10.869 14.3601 11.4635L5.86812 26.1576H0.722656L8.39585 13.0734L12.5515 5.99572L14.3791 9.1183ZM13.866 26.1576L19.2801 16.8839L24.7087 26.1576H13.866ZM21.6808 10.2798L21.636 9.50325L23.7326 13.0814L31.3913 26.1578H26.2911C24.7873 23.5915 20.2139 15.7797 20.0707 15.5357C20.1174 15.4548 20.163 15.3742 20.163 15.3742C21.2137 13.3746 21.6788 11.8068 21.6808 10.2798ZM19.0648 14.5735C19.0648 14.5735 18.9821 14.7239 18.8591 14.9406C18.7337 15.1596 12.3278 26.1575 12.3278 26.1575H7.32266L10.7587 20.2671L15.3823 12.3514L15.4654 12.2121C16.0817 11.1557 16.0845 9.42243 15.4775 8.36371L14.9031 7.3566L13.3482 4.63841L15.3101 1.29799L15.3081 1.29918L16.0699 0L19.3028 5.68362C20.0127 7.04865 20.3773 8.65621 20.3765 10.2796C20.3761 11.7827 19.7626 13.2748 19.0648 14.5735ZM148.238 18.4761C148.238 15.9681 147.303 13.8091 145.173 13.8091C143.108 13.8091 142.172 15.9681 142.172 18.4761C142.172 21.0153 143.108 23.1747 145.173 23.1747C147.303 23.1747 148.238 21.0153 148.238 18.4761ZM174.408 18.4761C174.408 15.8094 173.374 13.8091 171.374 13.8091C170.342 13.8091 169.212 14.571 168.695 15.5872V21.3649C169.212 22.3494 170.342 23.1747 171.374 23.1747C173.374 23.1747 174.408 21.1744 174.408 18.4761ZM132.912 18.4761C132.912 15.8094 131.88 13.8091 129.878 13.8091C128.846 13.8091 127.716 14.571 127.201 15.5872V21.3649C127.716 22.3494 128.846 23.1747 129.878 23.1747C131.88 23.1747 132.912 21.1744 132.912 18.4761ZM54.2773 13.5235C52.1154 13.5235 51.3409 15.5235 51.2764 17.1108H57.3104C57.2459 15.5235 56.536 13.5235 54.2773 13.5235ZM99.7417 18.4761C99.7417 15.9681 98.8057 13.8091 96.676 13.8091C94.6105 13.8091 93.6752 15.9681 93.6752 18.4761C93.6752 21.0153 94.6105 23.1747 96.676 23.1747C98.8057 23.1747 99.7417 21.0153 99.7417 18.4761ZM186.346 13.5235C184.184 13.5235 183.409 15.5235 183.345 17.1108H189.379C189.314 15.5235 188.605 13.5235 186.346 13.5235Z" fill="#D62456"/>
</svg>
